solid OpenSCAD_Model
  facet normal -1 0 0
    outer loop
      vertex 0.8 -2.5 2.5
      vertex 0.8 0 7.5
      vertex 0.8 0 2.5
    endloop
  endfacet
  facet normal -1 -0 0
    outer loop
      vertex 0.8 0 7.5
      vertex 0.8 -2.5 2.5
      vertex 0.8 -2.5 7.5
    endloop
  endfacet
  facet normal -1 0 0
    outer loop
      vertex 0.8 4.7 0.599999
      vertex 0.8 5 2.5
      vertex 0.8 5 0
    endloop
  endfacet
  facet normal -1 -0 0
    outer loop
      vertex 0.8 5 2.5
      vertex 0.8 4.7 0.599999
      vertex 0.8 5 7.5
    endloop
  endfacet
  facet normal -1 0 0
    outer loop
      vertex 0.8 4.7 9.4
      vertex 0.8 5 7.5
      vertex 0.8 4.7 0.599999
    endloop
  endfacet
  facet normal -1 0 0
    outer loop
      vertex 0.8 5 0
      vertex 0.8 0.299999 0.599999
      vertex 0.8 4.7 0.599999
    endloop
  endfacet
  facet normal -1 0 0
    outer loop
      vertex 0.8 0 2.5
      vertex 0.8 0.299999 0.599999
      vertex 0.8 0 0
    endloop
  endfacet
  facet normal -1 0 0
    outer loop
      vertex 0.8 0 0
      vertex 0.8 0.299999 0.599999
      vertex 0.8 5 0
    endloop
  endfacet
  facet normal -1 0 0
    outer loop
      vertex 0.8 5 2.5
      vertex 0.8 7.5 7.5
      vertex 0.8 7.5 2.5
    endloop
  endfacet
  facet normal -1 -0 0
    outer loop
      vertex 0.8 7.5 7.5
      vertex 0.8 5 2.5
      vertex 0.8 5 7.5
    endloop
  endfacet
  facet normal -1 0 0
    outer loop
      vertex 0.8 5 7.5
      vertex 0.8 4.7 9.4
      vertex 0.8 5 10
    endloop
  endfacet
  facet normal -1 0 0
    outer loop
      vertex 0.8 0.299999 9.4
      vertex 0.8 5 10
      vertex 0.8 4.7 9.4
    endloop
  endfacet
  facet normal -1 0 0
    outer loop
      vertex 0.8 0.299999 0.599999
      vertex 0.8 0 2.5
      vertex 0.8 0.299999 9.4
    endloop
  endfacet
  facet normal -1 0 0
    outer loop
      vertex 0.8 0 7.5
      vertex 0.8 0.299999 9.4
      vertex 0.8 0 2.5
    endloop
  endfacet
  facet normal -1 0 0
    outer loop
      vertex 0.8 0.299999 9.4
      vertex 0.8 0 10
      vertex 0.8 5 10
    endloop
  endfacet
  facet normal -1 0 0
    outer loop
      vertex 0.8 0 10
      vertex 0.8 0.299999 9.4
      vertex 0.8 0 7.5
    endloop
  endfacet
  facet normal -0 0 1
    outer loop
      vertex 0.8 0 7.5
      vertex 5.8 -2.5 7.5
      vertex 5.8 0 7.5
    endloop
  endfacet
  facet normal 0 0 1
    outer loop
      vertex 5.8 -2.5 7.5
      vertex 0.8 0 7.5
      vertex 0.8 -2.5 7.5
    endloop
  endfacet
  facet normal -0 0 1
    outer loop
      vertex 0.8 7.5 7.5
      vertex 5.8 5 7.5
      vertex 5.8 7.5 7.5
    endloop
  endfacet
  facet normal 0 0 1
    outer loop
      vertex 5.8 5 7.5
      vertex 0.8 7.5 7.5
      vertex 0.8 5 7.5
    endloop
  endfacet
  facet normal 1 -0 0
    outer loop
      vertex 5.8 -2.5 7.5
      vertex 5.8 0 2.5
      vertex 5.8 0 7.5
    endloop
  endfacet
  facet normal 1 0 0
    outer loop
      vertex 5.8 0 2.5
      vertex 5.8 -2.5 7.5
      vertex 5.8 -2.5 2.5
    endloop
  endfacet
  facet normal 1 0 0
    outer loop
      vertex 5.8 0 7.5
      vertex 5.8 5 7.5
      vertex 5.8 5 10
    endloop
  endfacet
  facet normal 1 0 0
    outer loop
      vertex 5.8 5 7.5
      vertex 5.8 0 7.5
      vertex 5.8 5 2.5
    endloop
  endfacet
  facet normal 1 0 0
    outer loop
      vertex 5.8 0 7.5
      vertex 5.8 5 10
      vertex 5.8 0 10
    endloop
  endfacet
  facet normal 1 0 0
    outer loop
      vertex 5.8 0 2.5
      vertex 5.8 5 2.5
      vertex 5.8 0 7.5
    endloop
  endfacet
  facet normal 1 0 0
    outer loop
      vertex 5.8 5 2.5
      vertex 5.8 0 2.5
      vertex 5.8 5 0
    endloop
  endfacet
  facet normal 1 0 0
    outer loop
      vertex 5.8 5 0
      vertex 5.8 0 2.5
      vertex 5.8 0 0
    endloop
  endfacet
  facet normal 1 -0 0
    outer loop
      vertex 5.8 5 7.5
      vertex 5.8 7.5 2.5
      vertex 5.8 7.5 7.5
    endloop
  endfacet
  facet normal 1 0 0
    outer loop
      vertex 5.8 7.5 2.5
      vertex 5.8 5 7.5
      vertex 5.8 5 2.5
    endloop
  endfacet
  facet normal 0 0 -1
    outer loop
      vertex 0.8 5 2.5
      vertex 5.8 7.5 2.5
      vertex 5.8 5 2.5
    endloop
  endfacet
  facet normal -0 0 -1
    outer loop
      vertex 5.8 7.5 2.5
      vertex 0.8 5 2.5
      vertex 0.8 7.5 2.5
    endloop
  endfacet
  facet normal 0 0 -1
    outer loop
      vertex 0.8 -2.5 2.5
      vertex 5.8 0 2.5
      vertex 5.8 -2.5 2.5
    endloop
  endfacet
  facet normal -0 0 -1
    outer loop
      vertex 5.8 0 2.5
      vertex 0.8 -2.5 2.5
      vertex 0.8 0 2.5
    endloop
  endfacet
  facet normal 0 -1 0
    outer loop
      vertex 0.8 -2.5 2.5
      vertex 5.8 -2.5 7.5
      vertex 0.8 -2.5 7.5
    endloop
  endfacet
  facet normal 0 -1 -0
    outer loop
      vertex 5.8 -2.5 7.5
      vertex 0.8 -2.5 2.5
      vertex 5.8 -2.5 2.5
    endloop
  endfacet
  facet normal 0 1 -0
    outer loop
      vertex 5.8 7.5 2.5
      vertex 0.8 7.5 7.5
      vertex 5.8 7.5 7.5
    endloop
  endfacet
  facet normal 0 1 0
    outer loop
      vertex 0.8 7.5 7.5
      vertex 5.8 7.5 2.5
      vertex 0.8 7.5 2.5
    endloop
  endfacet
  facet normal -0 0 1
    outer loop
      vertex 0.8 5 10
      vertex 5.8 0 10
      vertex 5.8 5 10
    endloop
  endfacet
  facet normal 0 0 1
    outer loop
      vertex 5.8 0 10
      vertex 0.8 5 10
      vertex 0.8 0 10
    endloop
  endfacet
  facet normal 0 1 -0
    outer loop
      vertex 5.8 5 7.5
      vertex 0.8 5 10
      vertex 5.8 5 10
    endloop
  endfacet
  facet normal 0 1 0
    outer loop
      vertex 0.8 5 10
      vertex 5.8 5 7.5
      vertex 0.8 5 7.5
    endloop
  endfacet
  facet normal 0 1 -0
    outer loop
      vertex 5.8 5 0
      vertex 0.8 5 2.5
      vertex 5.8 5 2.5
    endloop
  endfacet
  facet normal 0 1 0
    outer loop
      vertex 0.8 5 2.5
      vertex 5.8 5 0
      vertex 0.8 5 0
    endloop
  endfacet
  facet normal 0 0 -1
    outer loop
      vertex 0.8 0 0
      vertex 5.8 5 0
      vertex 5.8 0 0
    endloop
  endfacet
  facet normal -0 0 -1
    outer loop
      vertex 5.8 5 0
      vertex 0.8 0 0
      vertex 0.8 5 0
    endloop
  endfacet
  facet normal 0 -1 0
    outer loop
      vertex 0.8 0 7.5
      vertex 5.8 0 10
      vertex 0.8 0 10
    endloop
  endfacet
  facet normal 0 -1 -0
    outer loop
      vertex 5.8 0 10
      vertex 0.8 0 7.5
      vertex 5.8 0 7.5
    endloop
  endfacet
  facet normal 0 -1 0
    outer loop
      vertex 0.8 0 0
      vertex 5.8 0 2.5
      vertex 0.8 0 2.5
    endloop
  endfacet
  facet normal 0 -1 -0
    outer loop
      vertex 5.8 0 2.5
      vertex 0.8 0 0
      vertex 5.8 0 0
    endloop
  endfacet
  facet normal -1 0 0
    outer loop
      vertex 7.62939e-007 0.299999 0.599999
      vertex 7.62939e-007 4.7 9.4
      vertex 7.62939e-007 4.7 0.599999
    endloop
  endfacet
  facet normal -1 -0 0
    outer loop
      vertex 7.62939e-007 4.7 9.4
      vertex 7.62939e-007 0.299999 0.599999
      vertex 7.62939e-007 0.299999 9.4
    endloop
  endfacet
  facet normal -0 0 1
    outer loop
      vertex 7.62939e-007 4.7 9.4
      vertex 0.8 0.299999 9.4
      vertex 0.8 4.7 9.4
    endloop
  endfacet
  facet normal 0 0 1
    outer loop
      vertex 0.8 0.299999 9.4
      vertex 7.62939e-007 4.7 9.4
      vertex 7.62939e-007 0.299999 9.4
    endloop
  endfacet
  facet normal 0 0 -1
    outer loop
      vertex 7.62939e-007 0.299999 0.599999
      vertex 0.8 4.7 0.599999
      vertex 0.8 0.299999 0.599999
    endloop
  endfacet
  facet normal -0 0 -1
    outer loop
      vertex 0.8 4.7 0.599999
      vertex 7.62939e-007 0.299999 0.599999
      vertex 7.62939e-007 4.7 0.599999
    endloop
  endfacet
  facet normal 0 -1 0
    outer loop
      vertex 7.62939e-007 0.299999 0.599999
      vertex 0.8 0.299999 9.4
      vertex 7.62939e-007 0.299999 9.4
    endloop
  endfacet
  facet normal 0 -1 -0
    outer loop
      vertex 0.8 0.299999 9.4
      vertex 7.62939e-007 0.299999 0.599999
      vertex 0.8 0.299999 0.599999
    endloop
  endfacet
  facet normal 0 1 -0
    outer loop
      vertex 0.8 4.7 0.599999
      vertex 7.62939e-007 4.7 9.4
      vertex 0.8 4.7 9.4
    endloop
  endfacet
  facet normal 0 1 0
    outer loop
      vertex 7.62939e-007 4.7 9.4
      vertex 0.8 4.7 0.599999
      vertex 7.62939e-007 4.7 0.599999
    endloop
  endfacet
endsolid OpenSCAD_Model
